<svg width="208" height="40" viewBox="0 0 208 40" fill="none" xmlns="http://www.w3.org/2000/svg">
<g clip-path="url(#clip0_6064_34314)">
<path d="M20.0153 1.9088e-06C16.0554 0.00172983 12.1849 1.17612 8.89316 3.3747C5.60142 5.57329 3.03624 8.69733 1.52195 12.3519C0.00765223 16.0064 -0.38777 20.0274 0.385673 23.9064C1.15912 27.7853 3.06669 31.3482 5.86724 34.1444C8.66778 36.9407 12.2355 38.8448 16.1194 39.6161C20.0033 40.3873 24.029 39.991 27.6874 38.4774C31.3459 36.9637 34.4728 34.4006 36.673 31.1121C38.8731 27.8236 40.0477 23.9573 40.0481 20.0022C40.0484 17.3748 39.5304 14.7732 38.5237 12.3458C37.5169 9.91849 36.0412 7.71306 34.1809 5.85555C32.3205 3.99803 30.112 2.52483 27.6814 1.52011C25.2508 0.515394 22.6458 -0.00114593 20.0153 1.9088e-06ZM30.2941 22.903C30.2941 26.9725 28.4505 28.6501 23.8316 31.6536C20.6102 30.8934 16.6145 29.6549 12.9754 29.6549C12.1006 29.6549 10.959 30.2883 10.1979 31.0725L9.84145 30.6684L12.7611 27.8287C14.5522 26.2254 14.7294 24.8384 14.7294 23.6348V21.3543H14.327C12.8442 21.3543 11.8579 21.7235 11.3636 22.7414L11.1711 22.7064C11.3264 19.3447 12.8442 18.0843 14.6353 18.0843H14.7272V17.1385C14.7272 15.474 15.6217 14.3316 17.9377 12.8528L17.8764 12.7916C16.8796 13.0794 15.8515 13.2451 14.8147 13.2853C12.9317 13.2853 11.3155 11.8982 10.152 8.38139L10.2985 8.26125C10.6681 8.87724 11.7266 10.1988 14.3182 10.1988C16.7567 10.1988 20.2449 9.1197 22.7162 9.1197C26.8212 9.1197 30.281 10.8672 30.281 16.8589L30.2941 22.903ZM15.7354 26.765C15.9477 26.6938 16.1681 26.6498 16.3915 26.6339C17.4627 26.698 18.5264 26.8529 19.5714 27.097L20.1268 27.2193C22.0405 27.6562 22.4254 27.7741 23.8447 28.0931C24.4505 27.5491 26.7315 25.8322 26.7315 23.3661V17.1385C26.7315 16.789 26.7053 16.4613 26.6747 16.1533L15.7354 26.765ZM21.4959 12.2324C21.0414 12.2494 20.588 12.2902 20.1378 12.3547L19.5823 12.4465L19.427 12.4771C18.7709 12.5994 18.316 13.0319 18.316 13.8641V21.6339C18.3237 22.2868 18.1972 22.9344 17.9442 23.5365L26.5347 15.2359C26.0514 13.1761 24.6364 12.2346 21.4981 12.2346L21.4959 12.2324ZM61.8305 13.9799H58.0033V25.19H61.8305C65.7868 25.19 68.1421 23.021 68.1421 19.5653C68.1421 16.1097 65.8436 13.9843 61.8305 13.9843V13.9799ZM61.8305 22.9117H60.562V16.2647H61.8327C64.3171 16.2647 65.5309 17.3569 65.5309 19.5719C65.5309 21.7868 64.2602 22.9161 61.8305 22.9161V22.9117ZM77.5068 13.7964C74.0076 13.7964 71.9322 15.8737 71.9322 19.6046C71.9322 23.2809 74.012 25.356 77.5068 25.356C81.0016 25.356 83.0814 23.2787 83.0814 19.6046C83.0836 15.8781 80.9863 13.8008 77.509 13.8008L77.5068 13.7964ZM77.5068 23.0406C75.6304 23.0406 74.5435 21.8654 74.5435 19.6046C74.5435 17.2892 75.6369 16.1097 77.5068 16.1097C79.3767 16.1097 80.4702 17.2848 80.4702 19.6046C80.4702 21.8698 79.3854 23.045 77.509 23.045L77.5068 23.0406ZM113.387 20.7623H118.097V18.5146H113.389V16.3084H118.871V13.9843H110.83V25.1944H119.018V22.8986H113.389L113.387 20.7623ZM179.062 18.0603C179.062 15.45 177.332 13.9799 174.222 13.9799H169.752V25.19H172.311V21.9419H174.207L176.654 25.1944H179.396V24.9913L176.735 21.5378C178.215 20.9502 179.062 19.7554 179.062 18.0647V18.0603ZM174.25 19.8427H172.3V16.2276H174.25C175.705 16.2276 176.514 16.9069 176.514 18.0647C176.514 19.2224 175.713 19.8471 174.259 19.8471L174.25 19.8427ZM184.411 16.315H188.017V25.1922H190.576V16.3194H194.209V13.9843H184.42L184.411 16.315ZM204.89 18.5758C202.609 17.8222 202.001 17.619 202.001 16.848C202.001 16.2975 202.589 15.8934 203.399 15.8934C204.446 15.8934 205.421 16.0965 207.042 16.7213L207.797 14.81C206.357 14.146 204.79 13.801 203.204 13.7986C200.757 13.7986 199.377 15.1769 199.377 17.0511C199.377 18.9253 200.573 19.9192 202.616 20.5242C204.842 21.1796 205.24 21.4439 205.24 22.1603C205.24 22.7851 204.744 23.1346 203.915 23.1346C202.821 23.1346 201.467 22.7479 199.829 21.8851L198.874 23.8707C200.365 24.7706 202.554 25.3582 204.044 25.3582C206.449 25.3582 208 24.1088 208 22.014C208.009 20.1048 207.07 19.3141 204.899 18.5802L204.89 18.5758ZM130.712 18.5758C128.431 17.8222 127.823 17.619 127.823 16.848C127.823 16.2975 128.411 15.8934 129.22 15.8934C130.27 15.8934 131.245 16.0965 132.864 16.7213L133.618 14.81C132.178 14.146 130.612 13.801 129.026 13.7986C126.578 13.7986 125.198 15.1769 125.198 17.0511C125.198 18.9253 126.395 19.9192 128.437 20.5242C130.664 21.1796 131.062 21.4439 131.062 22.1603C131.062 22.7851 130.565 23.1346 129.736 23.1346C128.643 23.1346 127.289 22.7479 125.651 21.8851L124.695 23.8707C126.187 24.7706 128.376 25.3582 129.865 25.3582C132.271 25.3582 133.822 24.1088 133.822 22.014C133.83 20.1048 132.892 19.3141 130.721 18.5802L130.712 18.5758ZM86.4866 16.3194H90.0929V25.1966H92.6495V16.3194H96.2755V13.9843H86.4866V16.3194ZM158.876 13.8008C155.377 13.8008 153.301 15.8781 153.301 19.609C153.301 23.2853 155.381 25.3604 158.876 25.3604C162.371 25.3604 164.45 23.2831 164.45 19.609C164.45 15.8781 162.353 13.8008 158.874 13.8008H158.876ZM158.876 23.045C156.999 23.045 155.912 21.8698 155.912 19.609C155.912 17.2936 157.006 16.114 158.876 16.114C160.746 16.114 161.839 17.2892 161.839 19.609C161.837 21.8698 160.752 23.045 158.874 23.045H158.876ZM143.897 13.9843H139.611V25.1944H142.169V22.4028H144.009C147.007 22.4028 148.719 20.8956 148.719 18.2307C148.715 15.5111 146.992 13.9843 143.895 13.9843H143.897ZM143.989 20.1966H142.167V16.2276H143.88C145.369 16.2276 146.218 16.9441 146.218 18.2307C146.233 19.4801 145.422 20.1966 143.987 20.1966H143.989Z" fill="black"/>
</g>
<defs>
<clipPath id="clip0_6064_34314">
<rect width="208" height="40" fill="white"/>
</clipPath>
</defs>
</svg>
