<svg width="48" height="48" viewBox="0 0 48 48" fill="none" xmlns="http://www.w3.org/2000/svg">
<g clip-path="url(#clip0_5052_21729)">
<path d="M18.8796 32.1184C19.1371 32.0322 19.4047 31.9794 19.6757 31.9615C20.452 31.9615 21.8957 32.1828 23.4863 32.5164L24.147 32.6651C26.4413 33.1838 26.9021 33.3258 28.6068 33.7123C29.3335 33.0516 32.0754 30.9985 32.0754 28.0385V20.5643C32.0754 20.1465 32.0441 19.7517 32.0061 19.3817L18.8796 32.1184ZM25.7756 14.6808C25.2305 14.7017 24.6869 14.7513 24.147 14.8295L23.4863 14.9401L23.3013 14.9765C22.525 15.1251 21.97 15.6372 21.97 16.6414V25.9656C21.979 26.7502 21.8266 27.5283 21.5224 28.2516L31.8178 18.28C31.2314 15.8089 29.5383 14.6808 25.7756 14.6808ZM24 0C19.2533 0 14.6131 1.40758 10.6663 4.04473C6.71954 6.68188 3.6434 10.4302 1.8269 14.8156C0.0103988 19.201 -0.464881 24.0266 0.461164 28.6822C1.38721 33.3377 3.67299 37.6141 7.02945 40.9706C10.3859 44.327 14.6623 46.6128 19.3178 47.5388C23.9734 48.4649 28.799 47.9896 33.1844 46.1731C37.5698 44.3566 41.3181 41.2805 43.9553 37.3337C46.5924 33.3869 48 28.7467 48 24C48 17.6348 45.4714 11.5303 40.9706 7.02944C36.4697 2.52856 30.3652 0 24 0ZM36.3221 27.4835C36.3221 32.3678 34.1104 34.3796 28.5754 37.9838C24.7152 37.072 19.9301 35.5871 15.5628 35.5871C14.5272 35.5871 13.1463 36.3469 12.2329 37.2884L11.8051 36.8027L15.3052 33.4034C17.4524 31.4791 17.6738 29.8142 17.6738 28.3705V25.6336H17.1931C15.4175 25.6336 14.2332 26.0779 13.6402 27.2985L13.4106 27.2573C13.594 23.2237 15.4109 21.7123 17.5582 21.7123H17.6688V20.5643C17.6688 18.5657 18.7425 17.1964 21.5174 15.4208L21.4431 15.3465C20.1481 15.6768 18.8895 15.9378 17.7795 15.9378C15.5215 15.9378 13.5989 14.2728 12.1916 10.0542L12.3684 9.91053C12.816 10.6538 14.0895 12.2395 17.1915 12.2395C20.1151 12.2395 24.294 10.9445 27.2556 10.9445C32.1762 10.9445 36.3204 13.0538 36.3204 20.2323L36.3221 27.4835Z" fill="black"/>
</g>
<defs>
<clipPath id="clip0_5052_21729">
<rect width="48" height="48" fill="white"/>
</clipPath>
</defs>
</svg>
